<?xml version="1.0" encoding="utf-8"?>
<!-- Generator: Adobe Illustrator 25.0.0, SVG Export Plug-In . SVG Version: 6.00 Build 0)  -->
<svg version="1.1" id="圖層_1" xmlns="http://www.w3.org/2000/svg" xmlns:xlink="http://www.w3.org/1999/xlink" x="0px" y="0px"
	 viewBox="0 0 173.6 107.9" style="enable-background:new 0 0 173.6 107.9;" xml:space="preserve">
<style type="text/css">
	.st0{fill:none;stroke:#000000;stroke-width:0.75;stroke-linecap:round;stroke-miterlimit:10;}
	.st1{fill:none;stroke:#000000;stroke-width:0.5;stroke-linecap:round;stroke-miterlimit:10;}
	.st2{fill:none;stroke:#000000;stroke-width:0.5;stroke-miterlimit:10;}
	.st3{fill:#9ABEAA;stroke:#000000;stroke-width:0.5;stroke-linecap:round;stroke-miterlimit:10;}
	.st4{fill:#040000;}
	.st5{fill:none;stroke:#FFFFFF;stroke-width:0.75;stroke-linecap:round;stroke-miterlimit:10;}
</style>
<path class="st0" d="M46,72.7c2.7,3.3-0.8,4.8-0.8,4.8c-6.4,2.7-19.4-4.8-19.4-4.8S15,69.5,14.5,75.9s3,7.1,5.3,7.3
	c2.9,0.3,11.4-1.4,11.4-1.4c9.2-1.6,9,1.7,7.9,3.6c-0.9,1.5-5.3,6.3-22.2,5.6c-16.9-0.8-19.9-17-13-24.7s14.6-6.6,14.8-9.6
	c0.4-7.2,1.3-20.9,8.1-27.9c0.4-0.7-3.8,2.2-2.2,0.6s9-10.4,20.6-14.7c1.6-0.3-1.1-0.2-2.7,0s2.2-3.2,20.6-1.8
	c9.2-2.2,18.8-16.2,36.1-10.6c0.6,0.7-1.1-2-0.6-2c1.3,0,11.8,6.7,12.7,11.1c0,0,10.1,4.7,7.6,5.7s-7.3,2.1-7.3,2.1"/>
<path class="st0" d="M99.9,15.1c0,0,8.5,4.7,8.7,6.4s-4.3,3-6.7,3"/>
<path class="st0" d="M97.3,23.2c0,0,0.5-5.6,9.9-0.7"/>
<path class="st0" d="M111.2,16.5c0,0,5.6-0.6,8,0"/>
<path class="st0" d="M111.2,20.5c0,0,0.3,8.9-7.7,12.6c-1.8,0.8-0.8,5.8-4,6.9S84.8,36.4,84,31.7"/>
<path class="st0" d="M66.2,32.9c0,0,12.8-6.2,25.6-3"/>
<path class="st0" d="M64.9,40.9c0,0,17.6-10,26.8-9.2"/>
<path class="st0" d="M71.3,45.1c0,0,17.7-11.2,20.4-11.3"/>
<path class="st0" d="M105,34.2c0,0,8.6-0.6,11.6,2.7"/>
<path class="st0" d="M104.3,36.3c0,0,6.2,0.3,10,4.6"/>
<path class="st0" d="M103.4,38.2c0,0,6.7,1.2,10.4,7.5"/>
<path class="st0" d="M48.5,71c0,0,5.2,4,0,6.3"/>
<path class="st0" d="M38.5,69.5c0,0,9-1.4,11.8-0.5c1.9,0.6,5.8,4.4,1.6,7.9"/>
<path class="st0" d="M92.1,38.6c0,0-1,6.5-2.4,8.2c-0.6,0-0.3-2.1-0.9-2.1c-0.8,0.5-1.2,3.2-2.1,4.4c-0.2,0.1-0.7-0.5-0.9-0.3
	c0.5,2.4,3,11,9.1,15.9"/>
<path class="st0" d="M97.3,66c0,0,10-0.1,4.9,5.6"/>
<path class="st0" d="M97.3,68.9c0,0,5.7,1.3,2.2,5.3"/>
<path class="st0" d="M95.3,71.5c0,0,5.6,2.6,0.9,4.1c-1,0.3-3.4,0.4-4.3-0.2C87.8,72.7,75,59.4,75,59.4s-1.8-1.3-3.7,0.3
	c0,0-5.4,5.3-7.7,7.5c-0.4-0.2,0.4-1.4,0-1.6C60.2,66.7,53.5,72,53.5,72"/>
<path class="st1" d="M102.9,71.3c9.6,1,18.7,3.9,18.7,3.9s22.5,8.3,31.6,6.4c9.4-1.9,19.9-3,20.1-26.7"/>
<path class="st2" d="M102.6,71.3c0.1,0,0.1,0,0.2,0"/>
<path class="st1" d="M47.9,89.9c10.1-0.4,22.5-2.1,30.5-8.7c3.5-2.9,4.7-7,9.2-8.7"/>
<path class="st3" d="M173.3,53.6c0,13.8-11.9,24.6-25.7,24.1s-25.7-13.7-25.7-26s6-23.4,27-23.4C162.8,28.2,173.3,39.8,173.3,53.6z"
	/>
<path class="st1" d="M143.7,31c0,0-23.6,12.9-12.3,35.5"/>
<path class="st1" d="M148.5,32.9c0,0-19.8,11.6-11.2,37.8"/>
<path class="st1" d="M153.7,33.8c0,0-19.9,17.3-10,38.6"/>
<path class="st1" d="M166.2,47.1c0,0-14.1,3.4-21.7-0.9"/>
<path class="st1" d="M167.6,52.9c0,0-13.5,6.4-25.9,0.6"/>
<path class="st1" d="M167.6,59.5c0,0-13.6,6.1-26.7,0.6"/>
<path class="st1" d="M166.2,65.3c0,0-10,7.1-24.1,2.5"/>
<path class="st1" d="M153,39c0,0,1,7.2,0,9.3"/>
<path class="st1" d="M157.4,38.2c0,0,2.2,3.4,1.4,10.1"/>
<path class="st1" d="M161.5,37c0,0,3.9,5.2,2.8,10.5"/>
<g>
	<g>
		<path class="st4" d="M76,85c0,6.2,0,12.4,0,18.6c0,2.4,3.8,2.4,3.8,0c0-6.2,0-12.4,0-18.6C79.7,82.6,76,82.6,76,85L76,85z"/>
	</g>
</g>
<g>
	<g>
		<path class="st4" d="M76.2,86c1.4,2.5,2.9,5,4.4,7.4c0.7,1.1,1.4,2.4,2.3,3.3c1.3,1.3,2.8,0.5,4-0.5c3.2-2.8,4.1-7.4,7.2-10.3
			c-1.1-0.4-2.1-0.9-3.2-1.3c-0.2,6.3-0.3,12.6-0.5,18.8c-0.1,2.4,3.7,2.4,3.8,0c0.2-6.3,0.3-12.6,0.5-18.8c0-1.7-2.1-2.4-3.2-1.3
			c-1.7,1.6-2.8,3.6-3.9,5.6c-0.5,0.9-1,1.9-1.6,2.8c-0.2,0.4-0.5,0.7-0.8,1.1c-0.2,0.2-0.7,0.9-1.1,1c0.5,0.1,1,0.1,1.4,0.2
			c0.2,0.1,0.3,0.4,0,0c-0.1-0.2-0.3-0.4-0.4-0.6c-0.3-0.4-0.6-0.9-0.9-1.4c-0.6-0.9-1.1-1.7-1.6-2.6c-1.1-1.7-2.1-3.5-3.1-5.3
			C78.3,82,75,83.9,76.2,86L76.2,86z"/>
	</g>
</g>
<g>
	<g>
		<path class="st4" d="M108.2,84.4c-1.8,0-3.5,0-5.3,0c-1.7,0-3.2,0.3-4.2,1.7c-0.9,1.3-0.9,2.9-1,4.4c-0.1,1.7-0.2,3.4-0.2,5.1
			s0,3.4,0.1,5.2c0.1,1.8,0.7,3.2,2.4,3.9c3,1.3,6.6,1.2,9.6,0.3c2.3-0.7,1.3-4.3-1-3.6c-2.2,0.7-4.8,0.9-6.9,0
			c-0.2-0.1-0.3-0.1-0.4-0.2c0.7,0.6,0.2,0.1,0.2,0.1c-0.1-0.6-0.1-1.2-0.1-1.8c0-1.4,0-2.8,0-4.2c0.1-2.3,0.2-4.8,0.5-6.9
			c0-0.2,0-0.2,0.3-0.2c0.6-0.1,1.3,0,1.9,0c1.4,0,2.9,0,4.3,0C110.6,88.2,110.6,84.4,108.2,84.4L108.2,84.4z"/>
	</g>
</g>
<g>
	<g>
		<path class="st4" d="M101.1,96.3c1.9,0,3.9,0,5.8,0c1,0,1.9-0.9,1.9-1.9c-0.1-1-0.8-1.9-1.9-1.9c-1.9,0-3.9,0-5.8,0
			c-1,0-1.9,0.9-1.9,1.9C99.3,95.5,100,96.3,101.1,96.3L101.1,96.3z"/>
	</g>
</g>
<g>
	<g>
		<path d="M138.6,86.8c-0.4,0.3-0.5,0.5-0.3,0.7c0.1,0.1,0,0.1-0.2,0c0,0,0.1,0.2,0.1,0.2c0.1,0.5,0.4,1.2,0.6,1.7
			c0.4,1.6,0.7,3.2,0.9,4.8c0.5,3.2,0.6,6.5,0.5,9.7c-0.1,1.8,2.6,2.6,3.5,0.9c1.4-2.8,3.2-5.2,5.3-7.4c-1-0.3-2.1-0.6-3.1-0.8
			c1.1,2.9,2,5.8,2.7,8.8c0.4,1.8,3.2,1.8,3.6,0c0.8-3.3,1.6-6.6,2.4-9.9c0.4-1.6,0.7-3.1,1.2-4.6c0.2-0.7,0.4-1.4,0.7-2.1
			c0.2-0.4,0.4-0.8,0.6-1.1c0.1-0.1,0.1-0.2,0.2-0.3c0.1-0.1,0.1-0.1,0,0c-0.3-0.1-0.6-0.2-0.9-0.3c1,0.4,1.7,2.6,2.1,3.6
			c0.4,0.9,1.3,1.6,2.3,1.3c0.9-0.2,1.7-1.4,1.3-2.3c-0.7-1.9-1.9-5.2-4.1-5.9c-2.9-1-4.5,2.3-5.3,4.5c-0.9,2.5-1.4,5.2-2.1,7.8
			c-0.7,2.8-1.3,5.6-2,8.4c1.2,0,2.4,0,3.6,0c-0.7-3-1.6-5.9-2.7-8.8c-0.5-1.3-2.1-1.9-3.1-0.8c-2.4,2.4-4.4,5.2-5.9,8.2
			c1.2,0.3,2.3,0.6,3.5,0.9c0.2-5.1-0.3-10.1-1.5-15.1c-0.5-1.9-1.1-4.3-3.3-4.9c-2.1-0.6-4.1,0.8-4.3,2.9c-0.1,1,0.9,1.9,1.9,1.9
			C137.9,88.7,138.5,87.8,138.6,86.8L138.6,86.8z"/>
	</g>
</g>
<g>
	<g>
		<path d="M157.2,87.4c1.6,0,1.6-2.5,0-2.5S155.6,87.4,157.2,87.4L157.2,87.4z"/>
	</g>
</g>
<path class="st5" d="M158.3,84.9c0,0-2-1.9-3.5,1"/>
<path class="st5" d="M160.2,87.1c-0.2-0.7-1.1-1.4-1.1-1.4"/>
<path d="M124.2,82.3c-7.1,0-12.8,5.7-12.8,12.8s5.7,12.8,12.8,12.8s12.8-5.7,12.8-12.8S131.3,82.3,124.2,82.3z M127.4,88.3
	c0.8-2,2.6-1.7,2.9-1.7c0.9,0.2,1.7,1.4,0.9,3.5c-1,2.7-2.7,2-3.4,1.7C126.9,91.6,126.6,90.4,127.4,88.3z M121.7,87
	c0.1-1,1.3-2.5,2.4-2.5c1.1,0,2,1.3,1.5,2.9c-0.9,3.1-2.1,2.6-2.7,2.6C122.4,90,121.6,89.1,121.7,87z M115.6,89.5
	c0.5-2.4,2.4-2.5,2.4-2.5s2.4-0.3,1.7,2.9c-0.6,3.3-2.7,2.6-2.7,2.6S115.2,91.9,115.6,89.5z M125.3,105.2c-1.5,0.3-2.5-0.9-3-1.5
	c-0.5-0.6-1.2-0.6-1.6-0.8c-0.5-0.2-2.5,0-2.5,0c-1.9-0.1-2.6-2.5-2.6-2.5c-1.7-5.1,4.9-6.9,6.5-7.7c1.6-0.8,2.1-0.4,2.8-0.3
	c1.3,0.2,4,5.1,4.4,7.9C129.8,103.1,126.8,104.9,125.3,105.2z M130.4,97.1c0,0-1.2-1.3,0-3.3c1.2-1.9,3-1.5,3.2-1.4
	c0.3,0.1,1.6,1.8,0.1,3.7C131.9,98.6,130.4,97.1,130.4,97.1z"/>
</svg>
